<?xml version="1.0" encoding="UTF-8" standalone="no"?>
<!-- Created with Inkscape (http://www.inkscape.org/) -->

<svg
   width="210mm"
   height="297mm"
   viewBox="0 0 210 297"
   version="1.1"
   id="svg1"
   inkscape:version="1.3 (0e150ed6c4, 2023-07-21)"
   sodipodi:docname="Danger garden.svg"
   xmlns:inkscape="http://www.inkscape.org/namespaces/inkscape"
   xmlns:sodipodi="http://sodipodi.sourceforge.net/DTD/sodipodi-0.dtd"
   xmlns="http://www.w3.org/2000/svg"
   xmlns:svg="http://www.w3.org/2000/svg">
  <sodipodi:namedview
     id="namedview1"
     pagecolor="#505050"
     bordercolor="#eeeeee"
     borderopacity="1"
     inkscape:showpageshadow="0"
     inkscape:pageopacity="0"
     inkscape:pagecheckerboard="0"
     inkscape:deskcolor="#d1d1d1"
     inkscape:document-units="mm"
     inkscape:zoom="1"
     inkscape:cx="364.5"
     inkscape:cy="211.5"
     inkscape:window-width="1920"
     inkscape:window-height="1017"
     inkscape:window-x="2675"
     inkscape:window-y="1121"
     inkscape:window-maximized="1"
     inkscape:current-layer="layer1" />
  <defs
     id="defs1" />
  <g
     inkscape:label="Layer 1"
     inkscape:groupmode="layer"
     id="layer1">
    <path
       id="rect19"
       style="fill:#000000;fill-opacity:1;stroke-width:4.42736"
       d="m 97.184451,0 c -3.886386,0 -7.20813,0.77650233 -9.965142,2.3249478 -2.757009,1.5147824 -5.717928,3.66809 -7.179474,6.4620228 -0.787674,1.5221924 -1.335549,3.2077944 -1.68843,5.0271134 V 0.50542343 H 74.164389 V 20.855494 c 0,1.110842 0.018,2.305659 0.05109,3.584808 0.06645,1.245489 0.1152,2.406544 0.14841,3.483722 0.06639,1.077182 0.11766,1.884977 0.15084,2.423571 h -0.19944 L 55.331346,0.50542343 H 50.149281 V 24.844641 L 40.780197,0.3550293 H 36.744024 L 30.270087,17.211516 C 30.158082,13.797781 29.457003,10.884411 28.151035,8.4837162 26.722707,5.8580964 24.679926,3.8711237 22.022571,2.5246517 19.398435,1.178178 16.309884,0.50542343 12.755672,0.50542343 H 1.7954771 V 36.558136 h 1.992541 C 3.1730082,37.333759 2.6203964,38.170916 2.1433812,39.08279 0.71505141,41.843061 0,45.092368 0,48.828828 c 0,3.80379 0.64842231,7.102504 1.9438836,9.896438 1.3286784,2.76027 3.2560704,4.897927 5.7805599,6.412712 2.5244895,1.481124 5.6284745,2.221398 9.3155585,2.221398 2.491271,0 4.718497,-0.153133 6.678298,-0.456126 0.09343,-0.01429 0.18642,-0.03396 0.279786,-0.04917 h 4.274597 l 0.416024,-1.097133 c 0.286491,-0.08747 0.573058,-0.171406 0.858813,-0.26626 v -1.99457 l 2.960834,-7.800776 h 14.101059 l 4.284333,11.158758 h 0.04599 c 1.097244,4.230206 6.118899,11.343445 12.78243,18.106483 5.161464,5.226196 10.628115,9.550755 14.81634,11.720896 -0.012,0.162893 -0.0195,0.326311 -0.0195,0.493117 v 32.356945 c 0,3.02882 2.099454,5.46845 4.707654,5.46845 2.608197,0 4.707651,-2.43963 4.707651,-5.46845 V 97.174601 c 0,-0.167605 -0.0096,-0.331888 -0.0219,-0.495549 4.187169,-2.167222 9.655059,-6.491133 14.818759,-11.718427 6.66393,-6.764096 11.68479,-13.877567 12.78,-18.106487 h 5.34042 1.99254 V 46.706044 c 0,-1.851403 -0.049,-3.651454 -0.14841,-5.401868 -0.0997,-1.750411 -0.18414,-3.215321 -0.25059,-4.393485 h 0.1995 l 19.03498,29.943249 h 5.23073 V 36.558127 H 150 l -9.76546,-16.158746 c 1.1958,-0.403943 2.32365,-0.991063 3.38658,-1.765284 1.09616,-0.774223 1.99323,-1.8027 2.69079,-3.081849 0.69756,-1.279149 1.04615,-2.876637 1.04615,-4.795358 0,-3.4335051 -1.06122,-5.99195 -3.1871,-7.6750401 -2.09266,-1.7167519 -5.34779,-2.57642647 -9.76564,-2.57642647 h -7.67335 -19.88163 V 1.735698 C 105.58846,1.2474625 104.24519,0.85260781 102.81417,0.55719829 101.05367,0.18691806 99.177465,0 97.184451,0 Z M 96.9363,3.9891468 c 1.69407,0 3.32162,0.2206776 4.88282,0.6582829 1.59441,0.4039408 3.78115,0.9530261 5.04339,1.4916158 l -0.012,11.3831195 H 95.99007 v 4.038458 h 7.82176 v 9.240617 h -2.83919 v 2.043885 c -0.0523,0.0082 -0.0982,0.01915 -0.15084,0.02706 -1.096154,0.168335 -2.423882,0.251484 -3.985073,0.251484 -0.555966,0 -1.087116,-0.02493 -1.605714,-0.06163 -0.14625,-0.0802 -0.28776,-0.165507 -0.437952,-0.241603 -1.818366,-0.932791 -3.86427,-1.535476 -6.128697,-1.821876 -1.73058,-1.215755 -3.028563,-2.826624 -3.88533,-4.842201 -0.896865,-2.221681 -1.345395,-4.762006 -1.345395,-7.623265 0,-4.477024 1.17903,-8.012065 3.537432,-10.6040271 2.391624,-2.6256245 5.713368,-3.9398373 9.965139,-3.9398373 z M 6.2793036,4.3934852 h 5.8292174 c 4.284985,0 7.588865,1.1272963 9.91405,3.3826387 2.358402,2.2216788 3.539864,5.7410801 3.539864,10.5547191 0,5.728854 -1.731979,9.738406 -5.191799,12.034008 -0.63382,-0.04055 -1.27489,-0.06904 -1.934152,-0.06904 -3.886386,0 -7.208134,0.774032 -9.9651416,2.322481 -0.03,0.01672 -0.057759,0.03533 -0.087585,0.05177 H 6.2793036 Z M 129.07241,4.4452595 h 5.08232 c 2.92309,0 5.08369,0.5039502 6.4788,1.5138046 1.39512,0.9761923 2.09229,2.6436664 2.09229,4.9999929 0,2.255341 -0.66386,3.972224 -1.99254,5.150388 -1.32868,1.144502 -3.43809,1.715974 -6.32796,1.715974 h -5.33291 z m -17.73824,0.049305 h 13.25441 V 15.754416 h -13.25441 z m -72.648696,0.554738 c 0.13287,0.4039411 0.29943,0.9935265 0.498741,1.7677493 0.23253,0.7405595 0.465711,1.4651902 0.698244,2.172088 0.23253,0.7068983 0.39909,1.1952022 0.498741,1.4644952 l 3.985083,10.904817 H 33.106845 l 4.036173,-10.904817 c 0.19929,-0.5722512 0.430071,-1.3462897 0.695808,-2.3224825 0.29895,-1.0098541 0.580908,-2.0383338 0.846648,-3.08185 z m 15.20073,1.56558 h 0.19944 L 71.92851,34.686839 C 71.550864,34.204655 71.117994,33.766446 70.626936,33.377668 68.534271,31.660905 65.279154,30.80124 60.861291,30.80124 H 54.285204 V 16.410234 c 0,-1.851401 -0.04899,-3.65145 -0.14841,-5.401866 -0.09966,-1.7504159 -0.18414,-3.2153212 -0.25059,-4.3934855 z M 111.33417,19.694253 h 13.25441 v 12.204124 l -0.69823,-1.097137 h -3.03869 -9.51749 z m 17.73824,1.967455 h 7.07486 l 6.57855,11.368327 v 18.121277 c 0,1.110842 0.0156,2.305664 0.0485,3.584807 0.0665,1.245492 0.11766,2.406545 0.15084,3.483723 0.0664,1.077181 0.1152,1.884982 0.14841,2.42357 h -0.19944 L 127.55185,36.558136 h 1.52056 z m -50.721005,1.974848 c 0.3228,1.732918 0.812919,3.334925 1.48893,4.792894 0.410301,0.852377 0.884325,1.638182 1.40865,2.37179 h -2.89758 z m -46.740792,1.762819 h 14.101062 l 4.28433,11.158761 h 1.051011 V 55.142922 L 41.675502,30.650848 H 37.639329 L 29.547517,51.723301 V 47.817983 H 17.239498 v 4.038459 h 7.824192 v 10.705111 c -0.896857,0.235614 -1.893868,0.438191 -2.990028,0.606505 -1.096161,0.168333 -2.423886,0.251482 -3.985083,0.251482 -3.188828,0 -5.764643,-0.605229 -7.724444,-1.817054 C 8.4043341,60.356992 6.9587901,58.640111 6.0287154,56.452094 5.1318576,54.230412 4.683324,51.690084 4.683324,48.828828 c 0,-4.477024 1.1814585,-8.012069 3.5398629,-10.604025 0.57573,-0.63206 1.2044022,-1.186762 1.8879271,-1.666667 h 1.598413 c 3.821082,0 7.085092,-0.658612 9.799703,-1.967452 0.526329,0.09646 1.049882,0.209073 1.561919,0.352576 0.121725,0.03101 0.235416,0.06454 0.3552,0.09613 l -0.583892,1.518743 h 4.532484 l 0.800423,-2.107987 0.87341,-2.031551 c -0.02871,-0.01277 -0.05877,-0.02432 -0.08759,-0.03719 z m 47.436603,9.28993 h 5.831649 c 3.036444,0.828379 7.404639,1.286133 9.914046,3.382631 2.358405,2.221684 3.537435,5.741082 3.537435,10.554716 0,9.559955 -4.816077,14.339233 -14.448966,14.339233 h -4.834164 z m -23.51637,0.05177 h 5.082318 c 2.923086,0 5.08125,0.503947 6.476367,1.513804 1.395114,0.976189 2.09229,2.643669 2.09229,4.999992 0,2.255345 -0.663867,3.969753 -1.992546,5.147923 -1.328676,1.1445 -3.438084,1.718438 -6.32796,1.718438 H 55.530846 Z M 39.583212,35.34512 c 0.13287,0.403958 0.29943,0.993521 0.498741,1.767749 0.23253,0.740561 0.465711,1.465184 0.698244,2.172087 0.23253,0.706884 0.396645,1.195186 0.496311,1.464494 l 3.987513,10.904817 H 34.002147 L 38.038323,40.74945 c 0.19929,-0.57225 0.432471,-1.346289 0.698244,-2.322482 0.29895,-1.009847 0.580896,-2.038331 0.846645,-3.081848 z m 67.264708,0.298333 h 0.002 v 0.914696 h 11.85794 v 9.4921 H 105.45629 V 36.010807 c 0.46455,-0.11355 0.92898,-0.23455 1.39163,-0.367363 z m -33.729676,0.914696 h 1.445142 v 27.16465 l -7.872852,-13.02759 c 1.195815,-0.40396 2.32608,-0.993533 3.389025,-1.767748 1.096152,-0.774222 1.993221,-1.800237 2.690787,-3.079384 0.697554,-1.279155 1.046145,-2.876633 1.046145,-4.79536 -0.15195,-1.508805 -0.327252,-3.025265 -0.698247,-4.494568 z m 27.854226,0.246558 v 2.078401 c -0.018,-0.0339 -0.033,-0.07005 -0.0511,-0.103519 -0.36025,-0.662247 -0.76099,-1.282949 -1.199421,-1.863903 0.424351,-0.03292 0.846071,-0.0667 1.250511,-0.110966 z m 4.48382,13.185387 h 13.25199 v 12.874735 h -13.25199 z m -49.925444,1.967453 h 7.074858 l 8.61975,14.896427 h 3.337932 1.892793 8.023692 c 5.846169,0 10.39572,-1.532421 13.650975,-4.595657 1.14972,-1.082729 2.093684,-2.352841 2.841624,-3.801763 v 8.39742 h 4.64683 c -3.53938,2.388736 -7.519855,5.766588 -11.295934,9.585789 -4.780875,4.845792 -8.81922,9.979956 -11.096436,14.107471 C 80.949711,86.419719 76.911366,81.285555 72.130491,76.439763 66.145356,70.377786 59.816679,65.593317 55.530846,63.890468 Z"
       sodipodi:nodetypes="scccccsccccccccccscsccccsccsccccccccccccssssscccccscccccccccsscsccccscccccccccccsccccscscccscscccccccscscccccccccsccccccccccscsccccccccccccsccccccccccccccccccccccccccsccsccsccccccccccccsscccccscsccccscccccccccccccccccccscccccccccccccccccscccccccccccc" />
  </g>
</svg>
